<svg width="32" height="32" viewBox="0 0 32 32" fill="none" xmlns="http://www.w3.org/2000/svg">
  <rect width="32" height="32" rx="6" fill="#2563EB"/>
  <path d="M8 8H10L10.4 10M12 18H22L26 10H10.4M12 18L10.4 10M12 18L9.7 20.3C9.3 20.7 9.6 21.5 10.1 21.5H22M22 18V21.5M14 24.5C14.8 24.5 15.5 25.2 15.5 26S14.8 27.5 14 27.5 12.5 26.8 12.5 26 13.2 24.5 14 24.5ZM25 24.5C25.8 24.5 26.5 25.2 26.5 26S25.8 27.5 25 27.5 23.5 26.8 23.5 26 24.2 24.5 25 24.5Z" stroke="white" stroke-width="2" stroke-linecap="round" stroke-linejoin="round"/>
</svg>